<?xml version="1.0" encoding="utf-8"?><svg viewBox="0 0 1440 973" xmlns="http://www.w3.org/2000/svg" xmlns:xlink="http://www.w3.org/1999/xlink"><style>:root>svg{display:none}:root>svg:target{display:block}</style><svg fill="none" viewBox="0 0 1440 341" id="Path1" xmlns="http://www.w3.org/2000/svg"><path d="M1510.8 92.367c-27.88-64.646-101.08-105.434-170.54-88.544a149.72 149.72 0 0 0-84.47 55.89 134.684 134.684 0 0 0-24.45 97.475c4.37 33.177 20.27 65.287 46.06 86.972 23.73 19.976 57.47 30.207 88.08 23.296 31.74-7.241 52.29-34.381 53.72-66.452 1.58-35.177-15.9-69.286-40.14-93.708-25.55-25.606-60.86-41.894-97.35-35.196-36.5 6.697-60.3 35.215-65.75 71.188-6.45 42.438 10.28 82.798 17.88 123.838a202.6 202.6 0 0 1-9.45 107.316c-24.34 66.258-81.05 121.877-150.4 138.553-37.94 9.124-82.219 7.183-114.638-16.637-29.51-21.685-41.985-60.667-34.807-96.057 7.257-35.74 34.632-62.026 70.117-69.461 35.178-7.358 73.358 4.426 94.778 34.07 20.54 28.402 24.21 67.209 12.96 99.979-12.42 35.915-43.46 62.2-78.58 74.741-79.543 28.169-161.146-14.696-212.016-75.556-53.277-63.734-78.984-144.591-126.11-212.285-40.646-58.415-106.708-115.063-182.374-110.345-74.928 4.601-127.312 69.208-150.38 135.582-29.393 84.545-24.679 176.661-50.017 262.255-22.739 76.838-74.094 153.675-157.152 171.866a128.284 128.284 0 0 1-107.852-24.189C9.67 664.749-10.313 630.019-6.531 593.25c3.881-38.05 32.033-70.548 66.237-85.788 40.743-18.132 89.519-12.191 128.457 7.766 62.686 32.168 102.479 102.055 102.479 172.079-.155 82.662-59.369 149.172-124.829 192.289-36.339 23.917-75.666 42.709-114.915 61.327-2.541 1.203-.33 4.969 2.212 3.882 76.674-36.516 157.481-75.712 206.47-148.376 20.604-30.517 33.972-65.811 35.311-102.89a201.278 201.278 0 0 0-22.234-97.61c-33.099-65.132-103.41-111.898-178.164-102.367-35.854 4.563-68.991 23.821-88.936 54.358a99.058 99.058 0 0 0-7.877 95.377c14.027 31.256 42.082 55.581 73.88 67.578 33.759 12.755 71.165 9.182 104.012-4.698 75.666-31.993 117.185-107.414 136.47-183.669 10.903-43.04 15.792-87.166 21.516-131.118 6.014-46.301 13.367-93.611 32.827-136.475 15.851-34.944 40.219-67.267 72.891-87.943a137.567 137.567 0 0 1 112.529-15.686c80.535 23.296 130.979 96.873 168.191 166.955 38.085 71.713 72.639 149.793 141.63 197.589 31.877 22.092 69.846 36.885 108.998 37.118 35.466.233 71.416-11.338 98.946-33.993a118.453 118.453 0 0 0 43.56-87.845c1.05-31.644-10.54-64.53-35.24-85.166-24.69-20.637-59.69-26.208-90.29-17.919-31.411 8.523-56.264 31.799-65.344 63.229-8.808 30.46-3.201 65.404 16.2 90.699 22.719 29.644 61.386 40.982 97.434 40.322 69.57-1.301 132.84-43.544 169.88-100.949a223.707 223.707 0 0 0 34.65-95.242 197.26 197.26 0 0 0-.93-51.717c-3.55-23.587-10.79-46.398-15.74-69.694-8.4-39.623-9.06-90.582 28.51-116.13 36.28-24.694 83.42-13.182 114.85 13.589 29.1 24.888 51.2 63.579 47.44 102.988-1.79 18.597-10.61 36.283-25.98 47.31-14.26 10.231-32.19 13.589-49.47 12.405-79.65-5.824-121.77-98.659-97.69-168.78 12.73-36.962 43.17-66.51 79.06-81.302a138.2 138.2 0 0 1 111.87 2.99 152.124 152.124 0 0 1 74.68 76.818c1.12 2.582 4.88.35 3.78-2.194z" fill="#c3dce3"/></svg><svg fill="none" viewBox="0 0 620 477" id="Path2" xmlns="http://www.w3.org/2000/svg"><path d="M933.826 39.355c33.651 50.357 34.125 117.813 7.03 171.15-28.075 55.25-84.557 87.095-146.154 85.247-59.452-1.816-119.686-33.815-145.361-89.122-24.014-51.738-16.636-125.873 42.432-149.957 49.884-20.33 116.165 3.706 137.32 54.122 21.156 50.416-3.172 110.681-45.941 141.657-53.974 39.068-124.909 20.799-179.506-6.507-66.228-32.976-127.557-87.749-204.854-90.95-60.944-2.524-120.945 27.36-159.661 73.892a182.438 182.438 0 0 0-39.16 80.541c-6.433 32.437-.981 70.816 21.016 96.626 24.465 28.717 63.916 26.761 91.044 2.637 29.803-26.55 36.683-68.307 41.235-105.943 8.672-71.873 8.37-152.078-31.492-215.393-35.36-56.016-103.322-97.1-170.504-76.753C75.109 33.675 37.18 112.465 23.98 185.08c-7.152 39.395-9.255 79.619-11.625 119.529-2.416 40.575-4.553 81.2-8.88 121.669-8.278 76.669-25.025 153.398-64.968 220.294-37.463 62.757-94.256 114.272-166.432 132.13-67.184 16.721-138.536 5.35-202.238-19.324-79.644-30.757-150.156-80.793-221.11-127.279l-227.599-149.09-109.129-71.496c-2.349-1.538-.238-5.379 2.111-3.869l224.872 147.295c73.15 47.93 145.427 97.632 220.129 143.113 66.513 40.473 138.641 75.481 217.22 82.674 34.799 3.188 70.287.94 103.967-8.862a244.11 244.11 0 0 0 97.773-56.513C-.478 602.084-.275 425.428 9.972 272.169c4.905-73.013 13.264-151.51 61.264-210.447 20.727-25.496 48.251-46.485 80.071-55.77a134.657 134.657 0 0 1 87.566 4.964c60.483 24.065 99.854 80.884 114.602 142.646 8.201 34.555 9.807 70.384 8.014 105.704-1.85 36.081-4.778 74.852-17.621 108.877-10.944 28.971-33.292 56.086-64.905 62.711-28.248 5.903-54.107-8.605-68.848-32.379-32.11-51.78-14.984-118.552 19.397-164.457 34.11-45.513 87.553-77.03 144.312-82.697 72.248-7.161 134.14 34.234 193.358 69.364 56.076 33.287 129.74 69.182 194.885 39.072 52.04-24.049 85.377-90.389 63.748-145.378-21.819-55.58-101.782-79.426-150.163-43.718-57.998 42.776-37.387 133.015 8.16 176.085 45.547 43.069 117.681 56.668 176.032 33.523 60.715-24.125 96.182-87.887 96.016-151.639a156.62 156.62 0 0 0-25.831-86.955c-1.587-2.38 2.225-4.577 3.797-2.32z" fill="#c3dce3"/></svg><svg fill="none" viewBox="0 0 296 973" id="Path3" xmlns="http://www.w3.org/2000/svg"><path d="M65.148-160.444C16.651-124.165-6.255-60.716 1.533-1.401 9.61 60.044 52.266 108.88 110.964 127.646c56.664 18.083 124.115 7.966 166.741-35.637 39.87-40.79 57.598-113.151 9.918-155.529-40.268-35.78-110.769-35.184-147.504 5.311-36.735 40.495-33.862 105.422-3.848 148.871 37.886 54.811 110.857 61.203 171.431 53.633 73.429-9.043 149.495-40.27 223.448-17.552 58.307 17.912 104.933 66.07 125.947 122.837a182.437 182.437 0 0 1 10.108 88.985c-4.734 32.727-22.654 67.101-51.989 84.115-32.631 18.931-69.179 3.952-86.727-27.828-19.263-34.958-11.846-76.624-3.607-113.628 15.754-70.66 42.744-146.187 101.413-192.617 51.993-41.046 129.757-57.157 186.33-15.602 64.134 47.115 73.664 134.038 61.932 206.905-6.372 39.529-17.782 78.158-28.836 116.579-11.232 39.064-22.743 78.083-32.138 117.684-17.722 75.05-27.479 152.977-12.089 229.355 14.43 71.65 50.83 139.137 112.941 180.007 57.783 38.136 128.845 51.172 197.135 49.116 85.34-2.483 168.49-26.186 250.87-46.395l264.25-64.801 126.71-31.081c2.73-.667 2.02-4.993-.7-4.351l-261.09 64.017c-84.93 20.839-169.63 43.639-255.22 61.652-76.19 16.017-155.86 25.012-232.35 5.63-33.872-8.58-66.587-22.516-95.081-42.972a244.128 244.128 0 0 1-73.378-85.844c-76.807-147.243-18.179-313.886 23.188-461.812 19.686-70.48 37.94-147.282 12.303-218.837-11.055-30.943-30.02-59.9-56.933-79.25a134.658 134.658 0 0 0-84.223-24.474c-65.044 2.553-121.087 43.021-155.558 96.348-19.238 29.853-32.682 63.103-42.752 97.004-10.269 34.639-20.417 72.172-19.637 108.532.674 30.961 12.719 63.971 40.322 80.743 24.67 14.972 53.884 9.903 75.7-7.607 47.519-38.134 53.603-106.798 36.468-161.531-17.01-54.274-56.909-101.787-108.543-126.029-65.741-30.809-137.884-12.383-205.421 1.024-63.959 12.717-145.371 22.036-196.774-28.047-41.063-40.003-50.409-113.658-11.705-158.308 39.08-45.144 122.421-41.004 156.152 8.775 40.445 59.647-9.036 137.875-66.324 163.321-57.289 25.446-129.836 14.251-177.15-27.001C5.476 48.392-6.738-23.541 14.646-83.6a156.63 156.63 0 0 1 53.31-73.392c2.29-1.717-.574-5.057-2.808-3.452z" fill="#42AAFF"/></svg><svg viewBox="0 0 24 24" fill="none" id="close-icon" xmlns="http://www.w3.org/2000/svg"><path d="m18 18-6-6m0 0L6 6m6 6 6-6m-6 6-6 6" stroke="#000" stroke-width="2" stroke-linecap="round" stroke-linejoin="round"/></svg><svg fill="none" viewBox="0 0 41 41" id="ellipse1_icon" xmlns="http://www.w3.org/2000/svg"><circle opacity=".5" cx="20.5" cy="20.5" r="20.5" fill="#2b788b"/></svg><svg fill="none" viewBox="0 0 27 27" id="ellipse2_icon" xmlns="http://www.w3.org/2000/svg"><circle opacity=".5" cx="13.5" cy="13.5" r="13.5" fill="#2b788b"/></svg><svg fill="none" viewBox="0 0 22 22" id="ellipse3_icon" xmlns="http://www.w3.org/2000/svg"><circle opacity=".5" cx="11" cy="11" r="11" fill="#2b788b"/></svg><svg version="1.0" viewBox="0 0 64 64" id="header_logo" xmlns="http://www.w3.org/2000/svg"><path d="M9.7 9.6c-.4.4-.7 1.8-.7 3.1V15h46.1l-.3-2.8-.3-2.7-22.1-.3c-12.1-.1-22.3.1-22.7.4zM45.5 12c.3.5.1 1-.4 1-.6 0-1.1-.5-1.1-1 0-.6.2-1 .4-1 .3 0 .8.4 1.1 1zm5 0c.3.5.1 1-.4 1-.6 0-1.1-.5-1.1-1 0-.6.2-1 .4-1 .3 0 .8.4 1.1 1z"/><path d="M2.7 13.7c-.4.3-.7 8.2-.7 17.5C2 41.7 1.6 48 1 48c-.5 0-1 1.6-1 3.5V55h64v-3.5c0-1.9-.4-3.5-1-3.5s-1.1-6.9-1.2-17.3c-.3-17-.3-17.2-2.5-17.5-1.3-.2-2.3.1-2.3.7s.7 1.1 1.5 1.1c1.3 0 1.5 2.5 1.5 16.5V48H4V31.5C4 17.5 4.2 15 5.5 15c.8 0 1.5-.5 1.5-1 0-1.1-3.3-1.4-4.3-.3zM62 51.5c0 1.3-4 1.5-30 1.5s-30-.2-30-1.5S6 50 32 50s30 .2 30 1.5z"/><path d="M9 30v13h46V17H9v13zm27.5-8.6c3.3 1.4 3.5 1.8 3.5 6 0 3.6-.6 5.2-3.1 8.1C35.2 37.4 33 39 32 39c-1 0-3.2-1.6-4.9-3.5-2.5-2.9-3.1-4.5-3.1-8.1 0-4.1.3-4.6 3.3-5.9 4.1-1.8 5-1.8 9.2-.1zM17 39c0 .5-.9 1-2 1s-2-.5-2-1c0-.6.9-1 2-1s2 .4 2 1zm6 0c0 .5-.6 1-1.4 1-.8 0-1.8-.5-2.1-1-.3-.6.3-1 1.4-1 1.2 0 2.1.4 2.1 1zm21.5 0c-.3.5-1.3 1-2.1 1s-1.4-.5-1.4-1c0-.6.9-1 2.1-1 1.1 0 1.7.4 1.4 1zm6.5 0c0 .5-.9 1-2 1s-2-.5-2-1c0-.6.9-1 2-1s2 .4 2 1z"/><path d="M27.8 23.6c-1.6.8-2.8 1.8-2.8 2.2 0 3.1 2.5 8.5 4.5 9.8 2.3 1.5 2.7 1.5 5 0 2-1.3 4.5-6.7 4.5-9.8 0-1-5.5-3.8-7.2-3.8-.7.1-2.5.8-4 1.6zm7.2 4.2c0 1.5-3.8 4.4-4.9 3.7-1.7-1-1.3-1.9 1.2-3.1 2.9-1.5 3.7-1.6 3.7-.6z"/></svg><svg viewBox="0 -2 512 511" id="personal_data_course" xmlns="http://www.w3.org/2000/svg"><path d="M104 234.82H88v-121.6l6.84-1a338.587 338.587 0 0 0 78.152-21.27l6.016 14.832a355.637 355.637 0 0 1-75.008 21.2zm152 227.582-71.8-47.84 8.878-13.308L256 443.172l62.922-41.918 8.879 13.309zm152-342.246h16V234.82h-16zm0 0" fill="#00f"/><path d="M346.168 59.348a303.783 303.783 0 0 1-84.8-54.024L256 .5l-5.352 4.8A306.89 306.89 0 0 1 68.09 82.942L56 83.797V234.82c-.094 82.938 41.352 160.407 110.398 206.352L256 500.867l89.602-59.71C414.64 395.214 456.09 317.75 456 234.82V83.797l-12.07-.8a303.276 303.276 0 0 1-97.762-23.65zM440 234.82c.082 77.594-38.707 150.067-103.313 193.04L256 481.667l-80.688-53.809C110.707 384.887 71.918 312.414 72 234.82V98.715a323.12 323.12 0 0 0 184-76.8 319.129 319.129 0 0 0 83.895 52.151A319.46 319.46 0 0 0 440 98.715zm0 0" fill="#00f"/><path d="M128 251.27c0 70.69 57.309 128 128 128s128-57.31 128-128c0-70.696-57.309-128-128-128-70.656.082-127.918 57.34-128 128zm208 78.23c-21.02 21.59-49.871 33.77-80 33.77s-58.98-12.18-80-33.77v-9.734a8.003 8.003 0 0 1 6.063-7.77l44.449-11.129A27.577 27.577 0 0 0 248 314.605v32.665h16v-32.665c8.977-.792 17-5.921 21.488-13.738l44.45 11.113a8.001 8.001 0 0 1 6.062 7.766zm-72-70.23h-16l-16-12.22v-35.78h32v-16h-44a34.207 34.207 0 0 1 28.992-16H272a8 8 0 0 1 8 8v59.78zm8 13.992v17.804c-.098 1.418-1.344 8.204-16 8.204s-15.91-6.86-16-8v-18.008l2.633 2.008h26.734zm96-21.992a111.219 111.219 0 0 1-17.602 60 23.913 23.913 0 0 0-16.582-14.793L288 285.02v-23.954l8-6.093V187.27c0-13.258-10.746-24-24-24h-23.016c-23.062-.028-43.172 15.675-48.746 38.054l-2.484 9.946H216v43.703l8 6.093v23.954l-45.824 11.457a23.917 23.917 0 0 0-16.574 14.793c-25.579-40.215-22.891-92.211 6.695-129.575 29.586-37.363 79.582-51.898 124.586-36.218 45.008 15.68 75.152 58.132 75.117 105.793zm128 160h16v96h-16zm-32 32h16v64h-16zm-32 32h16v32h-16zm-432-64h16v96H0zm32 32h16v64H32zm32 32h16v32H64zm0 0" fill="#00f"/></svg><svg viewBox="0 0 512 512" id="phone-call-icon" xmlns="http://www.w3.org/2000/svg"><path d="M512 256.006C512 397.402 397.394 512.004 256.004 512 114.606 512.004 0 397.402 0 256.006-.007 114.61 114.606 0 256.004 0 397.394 0 512 114.614 512 256.006z" fill="#eb86bf"/><path d="m511.86 250.507-.201-.201c-.53-.538-123.677-123.683-124.212-124.212-31.615-32.022-75.471-51.93-123.919-51.93a7.575 7.575 0 0 0-7.578 7.577c0 2.507 1.297 4.621 3.172 6a7.267 7.267 0 0 0 1.591 1.589c.454.62 24.166 24.38 24.358 24.589-7.035-1.125-14.196-1.872-21.543-1.872a7.574 7.574 0 0 0-7.578 7.575c0 2.507 1.297 4.62 3.169 5.999.455.619 26.453 26.619 27.073 27.073.012.017.021.035.034.051-7.3-1.729-14.875-2.742-22.698-2.742a7.576 7.576 0 0 0-7.578 7.577c0 2.507 4.144 7.135 4.762 7.589.453.618 27.876 28.067 28.385 28.477-7.744-3.629-16.349-5.716-25.452-5.716a7.574 7.574 0 0 0-7.575 7.577c0 2.507 1.297 4.621 3.169 5.999.455.619 203.58 203.68 203.886 203.911.122.161.241.318.35.484C493.971 363.762 512 312.005 512 256.005c0-1.844-.1-3.664-.14-5.498zm-52.443 160.871c-.415-.43-56.426-56.526-57.005-57.005-.544-.513-1.013-1.111-1.588-1.588-.547-.515-238.287-238.385-238.86-238.86-5.769-5.455-13.203-8.891-21.223-9.388a34.18 34.18 0 0 0-26.247 9.958l-28.305 28.361c-15.675 15.715-38.349 66.071 89.331 194.036.247.247.477.46.722.706.299.301.567.585.868.886.267.268.515.497.781.763.279.282 158.956 158.958 159.214 159.214.089.089.172.177.258.263 48.966-16.405 91.322-47.172 122.054-87.346z" fill="#d670ad"/><g fill="#f6f6f6"><path d="m394.322 346.911-44.313-34.56c-12.442-9.715-29.77-9.633-42.137.148l-9.847 7.806c-7.543 5.994-18.375 5.342-25.174-1.472l-79.253-79.427c-6.818-6.829-7.451-17.698-1.472-25.275l7.78-9.877a34.156 34.156 0 0 0 .151-42.181l-34.482-44.401a34.143 34.143 0 0 0-24.834-13.133 34.177 34.177 0 0 0-26.247 9.959l-28.307 28.357c-15.675 15.715-38.349 66.073 89.331 194.036 83.252 83.43 134.028 100.943 161.966 100.943 16.784 0 26.507-6.208 31.705-11.417l28.298-28.367a34.212 34.212 0 0 0 9.93-26.281 34.22 34.22 0 0 0-13.095-24.858zm-7.561 40.442L358.46 415.72c-3.17 3.174-9.386 6.962-20.976 6.962-20.525 0-67.459-12.533-151.237-96.49C89.713 229.444 77.79 172.723 96.915 153.553l28.305-28.361a18.966 18.966 0 0 1 14.583-5.534 18.984 18.984 0 0 1 13.803 7.302l34.482 44.401a19.029 19.029 0 0 1-.085 23.506l-7.78 9.877c-10.724 13.599-9.589 33.103 2.645 45.356l79.253 79.427c12.245 12.283 31.734 13.414 45.311 2.656l9.852-7.806a18.893 18.893 0 0 1 23.407-.089l44.308 34.56a19.064 19.064 0 0 1 7.292 13.851 19.091 19.091 0 0 1-5.53 14.654zM263.527 74.164a7.575 7.575 0 0 0-7.577 7.577 7.575 7.575 0 0 0 7.577 7.577c87.732 0 159.106 71.377 159.106 159.106 0 4.188 3.392 7.577 7.577 7.577s7.577-3.389 7.577-7.577c0-96.09-78.173-174.26-174.26-174.26z"/><path d="M263.527 127.2c66.842 0 121.223 54.382 121.223 121.223 0 4.188 3.392 7.577 7.577 7.577s7.577-3.389 7.577-7.577c0-75.195-61.178-136.377-136.377-136.377-4.185 0-7.577 3.389-7.577 7.577s3.394 7.577 7.577 7.577z"/><path d="M263.527 165.156c45.955 0 83.342 37.334 83.342 83.231 0 4.188 3.392 7.577 7.577 7.577s7.577-3.389 7.577-7.577c0-54.249-44.182-98.383-98.494-98.383a7.575 7.575 0 0 0-7.577 7.577 7.573 7.573 0 0 0 7.575 7.575z"/><path d="M263.646 187.93c-4.185 0-7.577 3.389-7.577 7.577s3.392 7.577 7.577 7.577c24.875 0 45.111 20.236 45.111 45.111 0 4.188 3.392 7.577 7.577 7.577s7.577-3.389 7.577-7.577c-.001-33.23-27.036-60.265-60.265-60.265z"/></g></svg><svg viewBox="0 0 32 32" id="point_hero" xmlns="http://www.w3.org/2000/svg"><path d="M16 4.686 4.686 16 16 27.314 27.314 16 16 4.686zM10.343 16 16 10.343 21.657 16 16 21.657 10.343 16z" fill="#42aaff"/></svg><svg viewBox="0 0 32 32" fill="none" id="telegram-icon" xmlns="http://www.w3.org/2000/svg"><circle cx="16" cy="16" r="14" fill="url(#la)"/><path d="M22.987 10.209c.124-.806-.642-1.441-1.358-1.127L7.365 15.345c-.514.225-.476 1.003.056 1.173l2.942.937c.562.179 1.17.086 1.66-.253l6.632-4.582c.2-.138.418.147.247.323l-4.774 4.922c-.463.477-.371 1.286.186 1.636l5.345 3.351c.6.376 1.37-.001 1.483-.726l1.845-11.917z" fill="#fff"/><defs><linearGradient id="la" x1="16" y1="2" x2="16" y2="30" gradientUnits="userSpaceOnUse"><stop stop-color="#37BBFE"/><stop offset="1" stop-color="#007DBB"/></linearGradient></defs></svg><svg viewBox="0 0 100 100" id="vk-icon" xmlns="http://www.w3.org/2000/svg"><path d="M97.471 64.602V35.515c0-26.568-6.273-32.889-32.849-32.889C-.368 2.209 2.193-.434 2.629 64.553c0 26.568 6.273 32.889 32.849 32.889h22.059c28.236.487 40.644-1.454 39.934-32.84zm-18.276 5.68h-6.916c-2.618 0-3.408-2.124-8.101-6.815-4.1-3.951-5.829-4.445-6.866-4.445-1.433 0-1.828.395-1.828 2.37v6.222c0 1.679-.543 2.667-4.94 2.667-7.311 0-15.362-4.445-21.093-12.642-8.595-12-10.917-21.087-10.917-22.914 0-1.037.395-1.976 2.371-1.976h6.916c1.778 0 2.42.79 3.112 2.617 2.835 9.294 12.546 24.759 12.695 15.852V41.045c-.296-4.642-2.766-5.037-2.766-6.716 0-.741.692-1.58 1.778-1.58h10.867c1.482 0 1.976.741 1.976 2.518v13.729c.188 3.292 2.236 1.997 4.298-.148 4.989-5.531 8.496-14.124 8.496-14.124.445-1.037 1.235-1.975 3.013-1.975h6.916c2.075 0 2.519 1.037 2.075 2.519-.84 4.049-9.287 15.901-9.287 15.951-.741 1.136-1.037 1.729 0 3.062 1.991 2.481 16.499 15.583 8.201 16.001z" fill-rule="evenodd" clip-rule="evenodd" fill="#345e90"/></svg><svg fill="none" viewBox="0 0 90 39" id="wave_icon" xmlns="http://www.w3.org/2000/svg"><path opacity=".5" d="m7 32 14.797-14.602c5.842-5.765 15.231-5.765 21.073 0l4.26 4.204c5.842 5.765 15.231 5.765 21.073 0L83 7" stroke="#42AAFF" stroke-width="13" stroke-linecap="round"/></svg><svg viewBox="0 0 32 32" xml:space="preserve" id="whatsapp-icon" xmlns="http://www.w3.org/2000/svg"><path d="M17 0C8.7 0 2 6.7 2 15c0 3.4 1.1 6.6 3.2 9.2l-2.1 6.4c-.1.4 0 .8.3 1.1.1.2.4.3.6.3.1 0 .3 0 .4-.1l6.9-3.1c1.8.8 3.7 1.2 5.7 1.2 8.3 0 15-6.7 15-15S25.3 0 17 0z" fill="#25d366"/><path d="M25.7 20.5c-.4 1.2-1.9 2.2-3.2 2.4-.3.1-.6.1-1 .1-.8 0-2-.2-4.1-1.1-2.4-1-4.8-3.1-6.7-5.8V16c-.6-.9-1.7-2.6-1.7-4.4 0-2.2 1.1-3.3 1.5-3.8.5-.5 1.2-.8 2-.8h.5c.7 0 1.2.2 1.7 1.2l.4.8c.3.8.7 1.7.8 1.8.3.6.3 1.1 0 1.6-.1.3-.3.5-.5.7-.1.2-.2.3-.3.3l-.2.2c.3.5.9 1.4 1.7 2.1 1.2 1.1 2.1 1.4 2.6 1.6.2-.2.4-.6.7-.9l.1-.2c.5-.7 1.3-.9 2.1-.6.4.2 2.6 1.2 2.6 1.2l.2.1c.3.2.7.3.9.7.4.9.1 2.2-.1 2.9z" fill="#fff"/></svg></svg>